<?xml version="1.0" encoding="UTF-8" standalone="no"?>
<svg
   xmlns:dc="http://purl.org/dc/elements/1.1/"
   xmlns:cc="http://creativecommons.org/ns#"
   xmlns:rdf="http://www.w3.org/1999/02/22-rdf-syntax-ns#"
   xmlns:svg="http://www.w3.org/2000/svg"
   xmlns="http://www.w3.org/2000/svg"
   xmlns:sodipodi="http://sodipodi.sourceforge.net/DTD/sodipodi-0.dtd"
   xmlns:inkscape="http://www.inkscape.org/namespaces/inkscape"
   width="58.299999"
   height="45"
   viewBox="0 0 58.299999 45"
   id="svg2"
   version="1.1"
   inkscape:version="0.91 r13725"
   sodipodi:docname="favicon.svg">
  <metadata
     id="metadata36">
    <rdf:RDF>
      <cc:Work
         rdf:about="">
        <dc:format>image/svg+xml</dc:format>
        <dc:type
           rdf:resource="http://purl.org/dc/dcmitype/StillImage" />
        <dc:title></dc:title>
      </cc:Work>
    </rdf:RDF>
  </metadata>
  <defs
     id="defs34" />
  <sodipodi:namedview
     pagecolor="#ffffff"
     bordercolor="#666666"
     borderopacity="1"
     objecttolerance="10"
     gridtolerance="10"
     guidetolerance="10"
     inkscape:pageopacity="0"
     inkscape:pageshadow="2"
     inkscape:window-width="1745"
     inkscape:window-height="853"
     id="namedview32"
     showgrid="false"
     inkscape:zoom="11.464558"
     inkscape:cx="36.836231"
     inkscape:cy="22.5"
     inkscape:window-x="11"
     inkscape:window-y="27"
     inkscape:window-maximized="0"
     inkscape:current-layer="svg2"
     showguides="true"
     inkscape:guide-bbox="true"
     inkscape:snap-bbox="true"
     inkscape:bbox-nodes="true">
    <sodipodi:guide
       position="0.5,35.413489"
       orientation="1,0"
       id="guide4250"
       inkscape:label=""
       inkscape:color="rgb(0,0,255)" />
    <sodipodi:guide
       position="-15.35166,0.5"
       orientation="0,1"
       id="guide4252"
       inkscape:label=""
       inkscape:color="rgb(0,0,255)" />
    <sodipodi:guide
       position="57.8,22.068012"
       orientation="1,0"
       id="guide4254"
       inkscape:label=""
       inkscape:color="rgb(0,0,255)" />
  </sodipodi:namedview>
  <g
     id="g4164">
    <path
       id="path4"
       d="m 51.2,44.5 -44.1,0 0,-44 44.1,0 0,44 z M 7.7,44 l 42.9,0 0,-43 -42.9,0 0,43 z"
       inkscape:connector-curvature="0"
       style="fill:#99999a" />
    <path
       id="path6"
       d="m 54,41.2 -49.7,0 0,-37.4 49.7,0 0,37.4 z m -49.2,-0.6 48.6,0 0,-36.2 -48.6,0 0,36.2 z"
       inkscape:connector-curvature="0"
       style="fill:#2d368f" />
    <path
       id="path8"
       d="m 56.2,37.8 -54.1,0 0,-30.6 54.2,0 -0.1,30.6 z m -53.6,-0.5 53,0 0,-29.6 -53,0 0,29.6 z"
       inkscape:connector-curvature="0"
       style="fill:#03a550" />
    <path
       id="path10"
       d="m 57.8,34.6 -57.3,0 0,-24.2 57.3,0 0,24.2 z M 1.1,34 l 56.2,0 0,-23.1 -56.2,0 0,23.1 z"
       inkscape:connector-curvature="0"
       style="fill:#eb2227" />
    <path
       id="path12"
       d="m 7.1,3.5 0.6,0 0,1.6 -0.6,0 z"
       inkscape:connector-curvature="0"
       style="fill:#99999a" />
    <path
       id="path14"
       d="m 4.3,6.9 0.6,0 0,1.6 -0.6,0 z m 0,29.9 0.6,0 0,1.6 -0.6,0 z"
       inkscape:connector-curvature="0"
       style="fill:#2d368f" />
    <path
       id="path16"
       d="m 2.1,9.9 0.6,0 0,1.6 -0.6,0 z m 0,23.9 0.6,0 0,1.6 -0.6,0 z"
       inkscape:connector-curvature="0"
       style="fill:#03a550" />
    <path
       id="path18"
       d="m 50.6,3.3 0.6,0 0,1.6 -0.6,0 z m 0.6,38.4 -0.6,0 0,-1.6 0.6,0.1 m -44.1,-0.1 0.6,0 0,1.6 -0.6,0 z"
       inkscape:connector-curvature="0"
       style="fill:#99999a" />
    <path
       id="path20"
       d="m 53.5,6.7 0.6,0 0,1.6 -0.6,0 z m 0,30.1 0.6,0 0,1.6 -0.6,0 z"
       inkscape:connector-curvature="0"
       style="fill:#2d368f" />
    <path
       id="path22"
       d="m 56.2,11.4 -0.5,0 0,-1.5 0.5,0 m -0.5,23.7 0.6,0 0,1.6 -0.6,0 z"
       inkscape:connector-curvature="0"
       style="fill:#03a550" />
  </g>
</svg>
