<svg xmlns="http://www.w3.org/2000/svg" width="300" height="45" viewBox="0 0 300 45"><path d="M51.2 44.5H7.1V.5h44.1v44zM7.7 44h42.9V1H7.7v43z" fill="#99999A"/><path d="M54 41.2H4.3V3.8H54v37.4zm-49.2-.6h48.6V4.4H4.8v36.2z" fill="#2D368F"/><path d="M56.2 37.8H2.1V7.2h54.2l-.1 30.6zm-53.6-.5h53V7.7h-53v29.6z" fill="#03A550"/><path d="M57.8 34.6H.5V10.4h57.3v24.2zM1.1 34h56.2V10.9H1.1V34z" fill="#EB2227"/><path fill="#99999A" d="M7.1 3.5h.6v1.6h-.6z"/><path fill="#2D368F" d="M4.3 6.9h.6v1.6h-.6zM4.3 36.8h.6v1.6h-.6z"/><path fill="#03A550" d="M2.1 9.9h.6v1.6h-.6zM2.1 33.8h.6v1.6h-.6z"/><path fill="#99999A" d="M50.6 3.3h.6v1.6h-.6zM51.2 41.7h-.6v-1.6l.6.1M7.1 40.1h.6v1.6h-.6z"/><path fill="#2D368F" d="M53.5 6.7h.6v1.6h-.6zM53.5 36.8h.6v1.6h-.6z"/><path fill="#03A550" d="M56.2 11.4h-.5V9.9h.5M55.7 33.6h.6v1.6h-.6z"/><g fill="#231F20"><path d="M87.7 6.8v15.6H85V6.8h-4.2V4.2h11.1v2.6h-4.2zM97.9 11.3h7.8V4.2h2.7v18.2h-2.7v-8.5h-7.8v8.5h-2.7V4.2h2.7v7.1zM122.1 6.8h-7.3v4.4h7.1v2.6h-7.1v6.1h7.3v2.6h-10V4.2h10v2.6zM142 12.9h7.5v.6c0 1.4-.2 2.6-.5 3.6s-.8 1.9-1.6 2.7c-1.7 1.9-3.8 2.8-6.4 2.8-2.5 0-4.7-.9-6.5-2.7-1.8-1.8-2.7-4.1-2.7-6.6 0-2.6.9-4.9 2.8-6.7 1.8-1.8 4.1-2.8 6.7-2.8 1.4 0 2.7.3 4 .9 1.2.6 2.3 1.5 3.5 2.8l-2 1.9c-1.5-2-3.3-3-5.4-3-1.9 0-3.5.7-4.8 2-1.3 1.3-2 2.9-2 4.9 0 2 .7 3.7 2.2 5 1.4 1.2 2.8 1.8 4.4 1.8 1.4 0 2.6-.5 3.6-1.4 1.1-.9 1.7-2 1.8-3.3h-4.5l-.1-2.5zM156.4 4.2v15.6h5.3v2.6h-8.1V4.2h2.8zM177.7 18h-7.8l-2 4.4H165l9-19.3 8.7 19.3h-3l-2-4.4zm-1.1-2.6l-2.7-6.2-2.8 6.2h5.5zM195.9 6.9l-2.2 1.3c-.4-.7-.8-1.2-1.2-1.4-.4-.2-.9-.4-1.5-.4-.8 0-1.4.2-1.9.7-.5.4-.7.9-.7 1.6 0 .9.7 1.6 2 2.1l1.8.7c1.5.6 2.5 1.3 3.2 2.2.7.9 1 1.9 1 3.2 0 1.7-.6 3-1.7 4.1-1.1 1.1-2.5 1.6-4.2 1.6-1.6 0-2.9-.5-3.9-1.4-1-.9-1.6-2.3-1.9-3.9l2.8-.6c.1 1.1.3 1.8.7 2.2.6.8 1.4 1.2 2.5 1.2.9 0 1.6-.3 2.1-.9.6-.6.9-1.3.9-2.2 0-.4 0-.7-.2-1-.1-.3-.2-.6-.5-.8-.2-.2-.5-.5-.8-.7s-.7-.4-1.2-.6l-1.8-.7c-2.5-1.1-3.7-2.6-3.7-4.6 0-1.4.5-2.5 1.6-3.4 1-.9 2.3-1.4 3.9-1.4 2 .1 3.7 1.1 4.9 3.1zM210.6 6.9l-2.2 1.3c-.4-.7-.8-1.2-1.2-1.4-.4-.2-.9-.4-1.5-.4-.8 0-1.4.2-1.9.7-.5.4-.7.9-.7 1.6 0 .9.7 1.6 2 2.1l1.8.7c1.5.6 2.5 1.3 3.2 2.2.7.9 1 1.9 1 3.2 0 1.7-.6 3-1.7 4.1-1.1 1.1-2.5 1.6-4.2 1.6-1.6 0-2.9-.5-3.9-1.4-1-.9-1.6-2.3-1.9-3.9l2.8-.6c.1 1.1.3 1.8.7 2.2.6.8 1.4 1.2 2.5 1.2.9 0 1.6-.3 2.1-.9.6-.6.9-1.3.9-2.2 0-.4 0-.7-.2-1-.1-.3-.2-.6-.5-.8-.2-.2-.5-.5-.8-.7s-.7-.4-1.2-.6l-1.8-.7c-2.5-1.1-3.7-2.6-3.7-4.6 0-1.4.5-2.5 1.6-3.4 1-.9 2.3-1.4 3.9-1.4 2.1.1 3.7 1.1 4.9 3.1zM228 14.6l5.6 7.7h-3.4l-5.2-7.4h-.5v7.4h-2.7V4.2h3.2c2.4 0 4.1.5 5.2 1.4 1.2 1 1.8 2.3 1.8 4 0 1.3-.4 2.4-1.1 3.3-.7.9-1.7 1.5-2.9 1.7zm-3.4-2h.9c2.6 0 3.9-1 3.9-3 0-1.9-1.3-2.8-3.8-2.8h-1v5.8zM235.7 13.2c0-2.6.9-4.7 2.8-6.6 1.9-1.8 4.1-2.7 6.7-2.7 2.6 0 4.8.9 6.7 2.8 1.9 1.8 2.8 4.1 2.8 6.7 0 2.6-.9 4.8-2.8 6.6-1.9 1.8-4.1 2.7-6.8 2.7-2.3 0-4.5-.8-6.3-2.4-2-1.8-3.1-4.2-3.1-7.1zm2.8.1c0 2 .7 3.6 2 5 1.4 1.3 2.9 1.9 4.6 1.9 1.9 0 3.5-.7 4.8-2 1.3-1.3 2-2.9 2-4.9 0-1.9-.7-3.6-1.9-4.9-1.3-1.3-2.9-2-4.8-2s-3.5.7-4.8 2c-1.3 1.3-1.9 3-1.9 4.9zM258 13.2c0-2.6.9-4.7 2.8-6.6s4.1-2.7 6.7-2.7c2.6 0 4.8.9 6.7 2.8 1.9 1.8 2.8 4.1 2.8 6.7 0 2.6-.9 4.8-2.8 6.6-1.9 1.8-4.1 2.7-6.8 2.7-2.3 0-4.5-.8-6.3-2.4-2.1-1.8-3.1-4.2-3.1-7.1zm2.8.1c0 2 .7 3.6 2 5 1.4 1.3 2.9 1.9 4.6 1.9 1.9 0 3.5-.7 4.8-2 1.3-1.3 2-2.9 2-4.9 0-1.9-.7-3.6-1.9-4.9-1.3-1.3-2.9-2-4.8-2s-3.5.7-4.8 2c-1.3 1.3-1.9 3-1.9 4.9zM279.5 22.4l3.8-19.5 6.2 14.1L296 2.9l3.4 19.5h-2.8l-1.8-11-5.4 11.8-5.2-11.8-2 11h-2.7z"/></g><g fill="#292426"><path d="M83.3 32.6v8H86V42h-4.2v-9.3h1.5zM86.8 37.2c0-1.3.5-2.4 1.4-3.4 1-.9 2.1-1.4 3.5-1.4 1.3 0 2.5.5 3.4 1.4 1 1 1.4 2.1 1.4 3.4 0 1.3-.5 2.5-1.4 3.4-1 .9-2.1 1.4-3.5 1.4-1.2 0-2.3-.4-3.2-1.3-1-.7-1.6-2-1.6-3.5zm1.5.1c0 1 .3 1.9 1 2.5.7.7 1.5 1 2.4 1 1 0 1.8-.3 2.5-1s1-1.5 1-2.5-.3-1.8-1-2.5-1.5-1-2.5-1-1.8.3-2.5 1c-.6.7-.9 1.5-.9 2.5zM98.2 37.2c0-1.3.5-2.4 1.4-3.4 1-.9 2.1-1.4 3.5-1.4 1.3 0 2.5.5 3.4 1.4 1 1 1.4 2.1 1.4 3.4 0 1.3-.5 2.5-1.4 3.4-1 .9-2.1 1.4-3.5 1.4-1.2 0-2.3-.4-3.2-1.3-1.1-.7-1.6-2-1.6-3.5zm1.4.1c0 1 .3 1.9 1 2.5.7.7 1.5 1 2.4 1 1 0 1.8-.3 2.5-1s1-1.5 1-2.5-.3-1.8-1-2.5-1.5-1-2.5-1-1.8.3-2.5 1c-.6.7-.9 1.5-.9 2.5zM111.4 36.3l3.6-3.7h1.9l-4.2 4.2 4.2 5.1H115l-3.4-4.2-.3.3v4H110v-9.3h1.4v3.6zM119.9 32.6V42h-1.4v-9.3h1.4zM122.4 42V32l6.8 7.1v-6.5h1.4v9.9l-6.8-7.1V42h-1.4zM138 37.1h3.9v.3c0 .7-.1 1.3-.2 1.9-.2.5-.4 1-.8 1.4-.9 1-2 1.5-3.3 1.5-1.3 0-2.4-.5-3.4-1.4-.9-.9-1.4-2.1-1.4-3.4 0-1.4.5-2.5 1.4-3.4.9-.9 2.1-1.4 3.5-1.4.7 0 1.4.1 2 .4.6.3 1.2.8 1.8 1.5l-1 1c-.8-1-1.7-1.5-2.8-1.5-1 0-1.8.3-2.5 1s-1 1.5-1 2.5.4 1.9 1.1 2.6c.7.6 1.5.9 2.3.9.7 0 1.3-.2 1.9-.7.6-.5.9-1 .9-1.7H138v-1.5zM149.4 32.6V42H148v-9.3h1.4zM151.9 42V32l6.8 7.1v-6.5h1.4v9.9l-6.8-7.1V42h-1.4zM165.2 33.9v8h-1.4v-8h-2.1v-1.3h5.7v1.3h-2.2zM168.1 37.2c0-1.3.5-2.4 1.4-3.4 1-.9 2.1-1.4 3.5-1.4 1.3 0 2.5.5 3.4 1.4 1 1 1.4 2.1 1.4 3.4 0 1.3-.5 2.5-1.4 3.4-1 .9-2.1 1.4-3.5 1.4-1.2 0-2.3-.4-3.2-1.3-1.1-.7-1.6-2-1.6-3.5zm1.4.1c0 1 .3 1.9 1 2.5.7.7 1.5 1 2.4 1 1 0 1.8-.3 2.5-1s1-1.5 1-2.5-.3-1.8-1-2.5-1.5-1-2.5-1-1.8.3-2.5 1c-.5.7-.9 1.5-.9 2.5zM185.9 37.9l-3-5.3h1.6l2.1 3.7 2.1-3.7h1.6l-3.1 5.3v4h-1.4v-4zM190.8 37.2c0-1.3.5-2.4 1.4-3.4 1-.9 2.1-1.4 3.5-1.4 1.3 0 2.5.5 3.4 1.4 1 1 1.4 2.1 1.4 3.4 0 1.3-.5 2.5-1.4 3.4-1 .9-2.1 1.4-3.5 1.4-1.2 0-2.3-.4-3.2-1.3-1.1-.7-1.6-2-1.6-3.5zm1.4.1c0 1 .3 1.9 1 2.5.7.7 1.5 1 2.4 1 1 0 1.8-.3 2.5-1s1-1.5 1-2.5-.3-1.8-1-2.5-1.5-1-2.5-1-1.8.3-2.5 1c-.6.7-.9 1.5-.9 2.5zM204 32.6v5.6c0 .8.1 1.4.4 1.8.4.5.9.8 1.7.8.7 0 1.3-.3 1.7-.8.3-.4.4-.9.4-1.8v-5.6h1.4v6c0 1-.3 1.8-.9 2.4-.7.7-1.5 1.1-2.5 1.1s-1.8-.4-2.5-1.1c-.6-.6-.9-1.4-.9-2.4v-6h1.2zM215.2 38l2.9 4h-1.7l-2.7-3.8h-.3V42H212v-9.3h1.7c1.2 0 2.1.2 2.7.7.6.5.9 1.2.9 2 0 .7-.2 1.2-.6 1.7-.4.4-.9.7-1.5.9zm-1.8-1.1h.4c1.3 0 2-.5 2-1.5s-.6-1.4-1.9-1.4h-.5v2.9zM223.4 37.2c0-1.3.5-2.4 1.4-3.4 1-.9 2.1-1.4 3.5-1.4 1.3 0 2.5.5 3.4 1.4 1 1 1.4 2.1 1.4 3.4 0 1.3-.5 2.5-1.4 3.4-1 .9-2.1 1.4-3.5 1.4-1.2 0-2.3-.4-3.2-1.3-1.1-.7-1.6-2-1.6-3.5zm1.4.1c0 1 .3 1.9 1 2.5.7.7 1.5 1 2.4 1 1 0 1.8-.3 2.5-1s1-1.5 1-2.5-.3-1.8-1-2.5-1.5-1-2.5-1-1.8.3-2.5 1c-.6.7-.9 1.5-.9 2.5zM235.2 42V32l6.8 7.1v-6.5h1.4v9.9l-6.8-7.1V42h-1.4zM247.3 32.6v8h2.7V42h-4.2v-9.3h1.5zM253.1 32.6V42h-1.4v-9.3h1.4zM255.6 42V32l6.8 7.1v-6.5h1.4v9.9l-6.8-7.1V42h-1.4zM271.4 33.9h-3.7v2.2h3.6v1.3h-3.6v3.1h3.7V42h-5.2v-9.3h5.2v1.2zM279.1 32.6v8h2.7V42h-4.2v-9.3h1.5zM284.8 32.6V42h-1.4v-9.3h1.4zM292 33.9h-3.3v2.2h3.1v1.3h-3.1V42h-1.4v-9.3h4.7v1.2zM299.1 33.9h-3.7v2.2h3.6v1.3h-3.6v3.1h3.7V42h-5.2v-9.3h5.2v1.2z"/></g></svg>
