<?xml version="1.0" encoding="UTF-8" standalone="no"?>
<svg
   xmlns:dc="http://purl.org/dc/elements/1.1/"
   xmlns:cc="http://creativecommons.org/ns#"
   xmlns:rdf="http://www.w3.org/1999/02/22-rdf-syntax-ns#"
   xmlns:svg="http://www.w3.org/2000/svg"
   xmlns="http://www.w3.org/2000/svg"
   xmlns:sodipodi="http://sodipodi.sourceforge.net/DTD/sodipodi-0.dtd"
   xmlns:inkscape="http://www.inkscape.org/namespaces/inkscape"
   width="16px"
   height="16px"
   viewBox="0 0 16 16"
   version="1.1"
   id="svg2"
   inkscape:version="0.91 r13725"
   sodipodi:docname="facebookIcon.svg">
  <metadata
     id="metadata15">
    <rdf:RDF>
      <cc:Work
         rdf:about="">
        <dc:format>image/svg+xml</dc:format>
        <dc:type
           rdf:resource="http://purl.org/dc/dcmitype/StillImage" />
        <dc:title>79F8953A-EF30-4993-ADA1-01090C1C60B2</dc:title>
      </cc:Work>
    </rdf:RDF>
  </metadata>
  <sodipodi:namedview
     pagecolor="#ffffff"
     bordercolor="#666666"
     borderopacity="1"
     objecttolerance="10"
     gridtolerance="10"
     guidetolerance="10"
     inkscape:pageopacity="0"
     inkscape:pageshadow="2"
     inkscape:window-width="802"
     inkscape:window-height="610"
     id="namedview13"
     showgrid="false"
     inkscape:zoom="14.75"
     inkscape:cx="8"
     inkscape:cy="8"
     inkscape:window-x="323"
     inkscape:window-y="27"
     inkscape:window-maximized="0"
     inkscape:current-layer="svg2" />
  <!-- Generator: sketchtool 47.1 (45422) - http://www.bohemiancoding.com/sketch -->
  <title
     id="title4">79F8953A-EF30-4993-ADA1-01090C1C60B2</title>
  <desc
     id="desc6">Created with sketchtool.</desc>
  <defs
     id="defs8" />
  <g
     id="Symbols"
     stroke="none"
     stroke-width="1"
     fill="none"
     fill-rule="evenodd">
    <g
       id="Footer,-Hover"
       transform="translate(-1278.000000, -89.000000)"
       fill="#214CDB">
      <path
         d="M1278.66667,89 C1278.29778,89 1278,89.2977778 1278,89.6666667 L1278,104.333333 C1278,104.702222 1278.29778,105 1278.66667,105 L1286.5,105 L1286.5,99 L1284.5,99 L1284.5,96.5 L1286.5,96.5 L1286.5,94.5 C1286.5,92.4333333 1287.80889,91.4155556 1289.65111,91.4155556 C1290.53556,91.4155556 1291.29333,91.4822222 1291.51556,91.5111111 L1291.51556,93.6711111 L1290.23556,93.6711111 C1289.23333,93.6711111 1289,94.1488889 1289,94.8466667 L1289,96.5 L1291.5,96.5 L1291,99 L1289,99 L1289.04,105 L1293.33333,105 C1293.70222,105 1294,104.702222 1294,104.333333 L1294,89.6666667 C1294,89.2977778 1293.70222,89 1293.33333,89 L1278.66667,89 Z"
         id="facebook" />
    </g>
  </g>
</svg>
