<?xml version="1.0" encoding="UTF-8" standalone="no"?>
<!-- Generator: Adobe Illustrator 21.0.2, SVG Export Plug-In . SVG Version: 6.00 Build 0)  -->

<svg
   xmlns:dc="http://purl.org/dc/elements/1.1/"
   xmlns:cc="http://creativecommons.org/ns#"
   xmlns:rdf="http://www.w3.org/1999/02/22-rdf-syntax-ns#"
   xmlns:svg="http://www.w3.org/2000/svg"
   xmlns="http://www.w3.org/2000/svg"
   xmlns:sodipodi="http://sodipodi.sourceforge.net/DTD/sodipodi-0.dtd"
   xmlns:inkscape="http://www.inkscape.org/namespaces/inkscape"
   version="1.1"
   id="Image"
   x="0px"
   y="0px"
   viewBox="0 0 260 100"
   style="enable-background:new 0 0 260 100;"
   xml:space="preserve"
   inkscape:version="0.91 r13725"
   sodipodi:docname="mozilla-logo.svg"><metadata
     id="metadata17"><rdf:RDF><cc:Work
         rdf:about=""><dc:format>image/svg+xml</dc:format><dc:type
           rdf:resource="http://purl.org/dc/dcmitype/StillImage" /><dc:title></dc:title></cc:Work></rdf:RDF></metadata><defs
     id="defs15" /><sodipodi:namedview
     pagecolor="#ffffff"
     bordercolor="#666666"
     borderopacity="1"
     objecttolerance="10"
     gridtolerance="10"
     guidetolerance="10"
     inkscape:pageopacity="0"
     inkscape:pageshadow="2"
     inkscape:window-width="1107"
     inkscape:window-height="692"
     id="namedview13"
     showgrid="false"
     inkscape:zoom="1.1692308"
     inkscape:cx="130"
     inkscape:cy="50"
     inkscape:window-x="103"
     inkscape:window-y="351"
     inkscape:window-maximized="0"
     inkscape:current-layer="Image" /><style
     type="text/css"
     id="style3">
	.st0{fill:#FFFFFF;}
</style><g
     id="g5"
     style="fill:#000000;fill-opacity:1"><path
       class="st0"
       d="M97,45.9c-4.8,0-7.7,3.5-7.7,9.7c0,5.6,2.6,10,7.6,10c4.8,0,8-3.9,8-10.1C104.9,48.8,101.4,45.9,97,45.9z"
       id="path7"
       style="fill:#000000;fill-opacity:1" /><path
       class="st0"
       d="M224.5,62.2c0,2.1,1,3.8,3.8,3.8c3.3,0,6.9-2.4,7.1-7.8c-1.5-0.2-3.2-0.4-4.7-0.4   C227.4,57.8,224.5,58.7,224.5,62.2z"
       id="path9"
       style="fill:#000000;fill-opacity:1" /><path
       class="st0"
       d="M0,12.8v74.3h260V12.8H0z M75.6,71.9H62V53.6c0-5.6-1.9-7.8-5.6-7.8c-4.5,0-6.3,3.2-6.3,7.7v11.3h4.3v7.1H40.9   V53.6c0-5.6-1.9-7.8-5.6-7.8c-4.5,0-6.3,3.2-6.3,7.7v11.3h6.2v7.1H15.4v-7.1h4.3V46.4h-4.3v-7.1h13.6v4.9c1.9-3.5,5.3-5.6,9.9-5.6   c4.7,0,9,2.2,10.6,7c1.8-4.3,5.5-7,10.6-7c5.8,0,11.2,3.5,11.2,11.3v14.9h4.3V71.9z M96.6,72.6c-10,0-16.9-6.1-16.9-16.5   c0-9.5,5.8-17.4,17.5-17.4s17.4,7.9,17.4,16.9C114.5,66.1,107,72.6,96.6,72.6z M149.1,71.9h-28.4l-0.9-4.9l17.9-20.6h-10.2l-1.4,5   l-6.7-0.7l1.2-11.4H149l0.7,4.9l-18,20.6h10.5l1.5-5l7.4,0.7L149.1,71.9z M167.7,71.9h-9.7V60.2h9.7V71.9z M167.7,51.1h-9.7V39.4   h9.7V51.1z M173.7,71.9l14.1-49.6h9.2l-14.1,49.6H173.7z M192.6,71.9l14.1-49.6h9.2l-14.1,49.6H192.6z M242.6,72.6   c-4.3,0-6.7-2.5-7.1-6.5c-1.9,3.3-5.2,6.5-10.5,6.5c-4.7,0-10-2.5-10-9.3c0-8,7.7-9.9,15.1-9.9c1.8,0,3.7,0.1,5.3,0.3v-1.1   c0-3.3-0.1-7.3-5.3-7.3c-1.9,0-3.5,0.1-5,0.9l-1.1,3.7l-7.4-0.8l1.3-7.5c5.7-2.3,8.6-3,13.9-3c7,0,12.9,3.6,12.9,11v14.1   c0,1.9,0.7,2.5,2.2,2.5c0.4,0,0.9-0.1,1.4-0.2l0.1,4.9C246.7,72,244.6,72.6,242.6,72.6z"
       id="path11"
       style="fill:#000000;fill-opacity:1" /></g></svg>