<?xml version="1.0" encoding="UTF-8" standalone="no"?>
<!-- Generator: Adobe Illustrator 20.1.0, SVG Export Plug-In . SVG Version: 6.00 Build 0)  -->

<svg
   xmlns:dc="http://purl.org/dc/elements/1.1/"
   xmlns:cc="http://creativecommons.org/ns#"
   xmlns:rdf="http://www.w3.org/1999/02/22-rdf-syntax-ns#"
   xmlns:svg="http://www.w3.org/2000/svg"
   xmlns="http://www.w3.org/2000/svg"
   xmlns:sodipodi="http://sodipodi.sourceforge.net/DTD/sodipodi-0.dtd"
   xmlns:inkscape="http://www.inkscape.org/namespaces/inkscape"
   version="1.1"
   id="Layer_1"
   x="0px"
   y="0px"
   width="1065.2px"
   height="387.4px"
   viewBox="0 0 1065.2 387.4"
   style="enable-background:new 0 0 1065.2 387.4;"
   xml:space="preserve"
   inkscape:version="0.91 r13725"
   sodipodi:docname="ttc_black_logo.svg"><metadata
     id="metadata97"><rdf:RDF><cc:Work
         rdf:about=""><dc:format>image/svg+xml</dc:format><dc:type
           rdf:resource="http://purl.org/dc/dcmitype/StillImage" /><dc:title></dc:title></cc:Work></rdf:RDF></metadata><defs
     id="defs95" /><sodipodi:namedview
     pagecolor="#ffffff"
     bordercolor="#666666"
     borderopacity="1"
     objecttolerance="10"
     gridtolerance="10"
     guidetolerance="10"
     inkscape:pageopacity="0"
     inkscape:pageshadow="2"
     inkscape:window-width="1262"
     inkscape:window-height="614"
     id="namedview93"
     showgrid="false"
     inkscape:zoom="0.28539243"
     inkscape:cx="532.59998"
     inkscape:cy="193.7"
     inkscape:window-x="0"
     inkscape:window-y="27"
     inkscape:window-maximized="0"
     inkscape:current-layer="Layer_1" /><style
     type="text/css"
     id="style3">
	.st0{fill:#FFFFFF;}
	.st1{fill:none;stroke:#FFFFFF;stroke-width:1.7008;stroke-linecap:round;stroke-linejoin:round;stroke-dasharray:2.5795,3.4016;}
</style><g
     id="g5"
     style="fill:#000000;fill-opacity:1"><path
       class="st0"
       d="M589.1,29.6c0,1.5-1,3-3.1,4.6c-6.8,2.1-10.2,4.2-10.2,6.4v59.9c0,0.9-0.8,2-2.4,3.3c-1.6,1.3-2.9,1.9-3.8,1.9   c-1.3,0-2.7-0.6-4.1-1.8c-1.4-1.2-2.1-2.4-2.1-3.6V40.9c0-1.9-1.6-3.5-4.8-4.9c-4.2-1.8-6.6-3-7.2-3.6l-0.6-0.6   c-0.4-0.6-0.6-1.3-0.6-2.1c0-3,2.9-4.8,8.8-5.5c1.2-0.1,4.7-0.2,10.7-0.2c6.1,0,9.7,0.1,10.9,0.2C586.2,24.8,589.1,26.7,589.1,29.6   z"
       id="path7"
       style="fill:#000000;fill-opacity:1" /><path
       class="st0"
       d="M631.3,62.9c-0.2-0.4-0.3-0.8-0.3-1.2c0-0.8,0.7-1.9,2.2-3.2h-8c-1.5,4.9-2.3,8.5-2.3,11c0,1.8,2,3.9,6.1,6.4   c0.3-0.2,0.7-0.6,1.4-1.1c1.5-1.1,2.3-2.4,2.3-3.8c0-0.4-0.3-2.2-0.9-5.3C631.6,65.3,631.5,64.4,631.3,62.9z M642.5,104.5   c-2.5,0-4.3-1.1-5.2-3.2c-0.3-0.6-0.8-2.7-1.5-6.3c-0.5-2.6-1.2-4.4-2-5.4c-1.3-1.6-3.3-2.4-5.9-2.4c-3.5,0-5.9,1-7.3,3   c-0.8,1.3-1.3,3.3-1.4,6.2c-0.1,1.2-0.4,3.2-0.9,5.7c-0.8,1.6-2.5,2.4-5,2.4c-1,0-2.1-0.7-3.3-2.1c-1.2-1.4-1.8-2.6-1.8-3.5   c0-1.9,1.4-11.3,4.1-28.2c3.3-20.6,5.8-34.6,7.5-42.1c0.7-3.1,3.4-4.7,8.2-4.7c2.5,0,4.3,0.2,5.2,0.6c1.5,0.6,2.5,2,2.9,4.1   c2.2,10.3,4.7,24.5,7.7,42.8c2.7,16.6,4,25.8,4,27.4c0,1-0.6,2.2-1.7,3.6C644.6,103.8,643.5,104.5,642.5,104.5z"
       id="path9"
       style="fill:#000000;fill-opacity:1" /><path
       class="st0"
       d="M685.7,107.4c-13,0-19.2-10.4-18.8-31.2c0-1,0.1-2.9,0.2-5.5c0.1-2.4,0.2-4.2,0.2-5.5c0-1-0.1-2.5-0.3-4.4   c-0.2-1.9-0.3-3.3-0.3-4.1c-0.7-21.8,5.6-32.7,18.9-32.7c5.4,0,9.8,1.9,13.2,5.7c3.4,3.8,5.1,8.4,5.1,13.9c0,2-0.4,3.8-1.3,5.3   c-1,1.8-2.5,2.7-4.4,2.7l-0.5-0.1l0.8-1.9c0.7,0.5,1.5,1.2,2.5,2.1l1,0.9l-1.3-0.3c-2.3-0.6-3.7-1-4.2-1.4l-0.9-0.6   c-1.5-3.5-3.7-8.1-6.6-13.7l-0.4-0.2c-0.9-0.8-1.9-1.1-3-1.1c-4.6,0-7.2,4.4-7.8,13.3c-0.1,2.6-0.1,6,0.1,10l0.4,7.2   c0-0.3-0.1,2.1-0.4,7.2c-0.2,4.3-0.2,7.6-0.1,10c0.5,8.9,3.1,13.3,7.7,13.3c2.9,0,5-1.1,6.1-3.2c0.7-1.4,1.3-3.7,1.5-7   c0.1-2.1,0.3-3.5,0.6-4.4c0.8-2.4,2.3-3.6,4.5-3.6c3.7,0,5.6,2.8,5.6,8.5c0,5.6-1.6,10.5-4.9,14.5   C695.6,105.2,691.1,107.4,685.7,107.4z"
       id="path11"
       style="fill:#000000;fill-opacity:1" /><path
       class="st0"
       d="M751.9,33.1l-0.6,0.2c-0.4,0.1-1.3,0.4-2.6,0.7c-4.8,1.5-7.3,3.5-7.3,6v60c0,1-0.7,2.1-2,3.1   c-1.3,1-2.5,1.5-3.6,1.5c-1.2,0-2.5-0.5-3.7-1.5c-1.2-1-1.8-2.1-1.8-3.3V40.3c0-2.2-1.9-4.1-5.8-5.7c-1.2-0.5-3.3-1.5-6.1-3   c-0.4-0.6-0.9-1.1-1.4-1.7c0.4-3.4,3-5.3,7.7-5.8c0.2-0.1,4-0.1,11.3-0.1c5.8,0,9.4,0.1,10.8,0.2c2.9,0.3,4.6,0.6,5.3,0.8   c1.8,0.8,2.8,2.1,2.8,4.1C754.8,30.4,753.8,31.8,751.9,33.1z"
       id="path13"
       style="fill:#000000;fill-opacity:1" /><path
       class="st0"
       d="M778.1,104.5c-1.2,0-2.5-0.5-3.7-1.5c-1.2-1-1.8-2.1-1.8-3.3v-71c0-1.2,0.6-2.3,1.9-3.3c1.3-1,2.5-1.5,3.7-1.5   c1.2,0,2.5,0.5,3.8,1.4c1.3,0.9,1.9,2,1.9,3.2V100c0,1.3-0.6,2.3-1.9,3.2C780.7,104.1,779.4,104.5,778.1,104.5z"
       id="path15"
       style="fill:#000000;fill-opacity:1" /><path
       class="st0"
       d="M818.1,107.4c-13,0-19.2-10.4-18.8-31.2c0-1,0.1-2.9,0.2-5.5c0.1-2.4,0.2-4.2,0.2-5.5c0-1-0.1-2.5-0.3-4.4   c-0.2-1.9-0.3-3.3-0.3-4.1c-0.7-21.8,5.6-32.7,18.9-32.7c5.4,0,9.8,1.9,13.2,5.7c3.4,3.8,5.1,8.4,5.1,13.9c0,2-0.4,3.8-1.3,5.3   c-1,1.8-2.5,2.7-4.4,2.7l-0.5-0.1l0.8-1.9c0.7,0.5,1.5,1.2,2.5,2.1l1,0.9l-1.3-0.3c-2.3-0.6-3.7-1-4.2-1.4l-0.9-0.6   c-1.5-3.5-3.7-8.1-6.6-13.7l-0.4-0.2c-0.9-0.8-1.9-1.1-3-1.1c-4.6,0-7.2,4.4-7.8,13.3c-0.1,2.6-0.1,6,0.1,10l0.4,7.2   c0-0.3-0.1,2.1-0.4,7.2c-0.2,4.3-0.2,7.6-0.1,10c0.5,8.9,3.1,13.3,7.7,13.3c2.9,0,5-1.1,6.1-3.2c0.8-1.4,1.3-3.7,1.5-7   c0.1-2.1,0.3-3.5,0.6-4.4c0.7-2.4,2.3-3.6,4.5-3.6c3.7,0,5.6,2.8,5.6,8.5c0,5.6-1.6,10.5-4.9,14.5   C828,105.2,823.6,107.4,818.1,107.4z"
       id="path17"
       style="fill:#000000;fill-opacity:1" /><path
       class="st0"
       d="M878.7,62.9c-0.2-0.4-0.3-0.8-0.3-1.2c0-0.8,0.7-1.9,2.1-3.2h-8c-1.5,4.9-2.3,8.5-2.3,11c0,1.8,2,3.9,6.1,6.4   c0.3-0.2,0.7-0.6,1.4-1.1c1.5-1.1,2.2-2.4,2.2-3.8c0-0.4-0.3-2.2-0.9-5.3C879,65.3,878.9,64.4,878.7,62.9z M889.9,104.5   c-2.5,0-4.3-1.1-5.2-3.2c-0.3-0.6-0.8-2.7-1.5-6.3c-0.5-2.6-1.2-4.4-2.1-5.4c-1.3-1.6-3.3-2.4-5.9-2.4c-3.5,0-5.9,1-7.3,3   c-0.8,1.3-1.3,3.3-1.4,6.2c-0.1,1.2-0.4,3.2-0.9,5.7c-0.8,1.6-2.5,2.4-5,2.4c-1,0-2.1-0.7-3.3-2.1c-1.2-1.4-1.9-2.6-1.9-3.5   c0-1.9,1.4-11.3,4.1-28.2c3.3-20.6,5.8-34.6,7.5-42.1c0.7-3.1,3.4-4.7,8.2-4.7c2.5,0,4.3,0.2,5.2,0.6c1.5,0.6,2.5,2,2.9,4.1   c2.2,10.3,4.7,24.5,7.7,42.8c2.7,16.6,4,25.8,4,27.4c0,1-0.6,2.2-1.7,3.6C892,103.8,890.9,104.5,889.9,104.5z"
       id="path19"
       style="fill:#000000;fill-opacity:1" /><path
       class="st0"
       d="M937.9,104.8c-1.5,0-4.2-0.1-8.2-0.3c-2.7-0.1-6.5-0.3-11.4-0.7c-2.5-0.5-3.7-1.8-3.7-4.1v-71   c0-1.2,0.7-2.3,2-3.3c1.3-1,2.5-1.5,3.7-1.5c1.2,0,2.4,0.5,3.7,1.5c1.3,1,1.9,2,1.9,3.1v60c0,3.5,2.6,5.5,7.8,5.9   c1.1,0.1,2.8,0.2,5,0.4c2.2,0.2,3.7,0.6,4.3,1.3c1.3,1.5,1.9,2.5,1.9,3.1c0,0.3,0,0.6-0.1,0.8C944.3,102.8,942.1,104.3,937.9,104.8   z"
       id="path21"
       style="fill:#000000;fill-opacity:1" /><path
       class="st0"
       d="M589.1,158.4c0,1.5-1,3-3.1,4.6c-6.8,2.1-10.2,4.2-10.2,6.4v59.9c0,0.9-0.8,2-2.4,3.3   c-1.6,1.3-2.9,1.9-3.8,1.9c-1.3,0-2.7-0.6-4.1-1.8c-1.4-1.2-2.1-2.4-2.1-3.6v-59.5c0-1.9-1.6-3.5-4.8-4.9c-4.2-1.8-6.6-3-7.2-3.6   l-0.6-0.6c-0.4-0.6-0.6-1.2-0.6-2.1c0-3,2.9-4.8,8.8-5.5c1.2-0.1,4.7-0.2,10.7-0.2c6.1,0,9.7,0.1,10.9,0.2   C586.2,153.6,589.1,155.4,589.1,158.4z"
       id="path23"
       style="fill:#000000;fill-opacity:1" /><path
       class="st0"
       d="M636.1,163.6c-4.7,0-7.8,0.4-9.4,1.1c-2.6,1.3-3.9,3.5-3.9,6.8v3.9c0,3.8,0.6,6.6,1.8,8.2   c1,1.4,2.4,2.5,4.5,3.3c2.7,0.8,4.4,1.3,4.9,1.6c1.9,0.9,2.9,2.1,2.9,3.7c0,1.7-1.3,2.9-4,3.7c-3.8,1.2-6.4,2.9-7.9,5.1   c-1.5,2.2-2.2,5.3-2.2,9.5c0,4.6,0.6,8,1.7,10.2c1.6,2.9,4.6,4.2,8.8,3.9c3.5-0.3,5.5-0.4,6.1-0.4c2.1,0.3,3.2,1.5,3.2,3.7v0.9   c0,2.3-1.2,3.7-3.7,4.4c-1.8,0.5-5.8,0.7-11.8,0.7c-5,0-8-0.1-9-0.2c-4.4-0.6-6.6-2.1-6.6-4.6v-71c0-1.9,0.8-3.1,2.4-3.7   c1-0.3,2.6-0.5,4.9-0.8c1-0.1,3.8-0.2,8.2-0.2c10.3,0,15.5,1.7,15.5,5.2c0,1.5-0.7,2.7-2.1,3.6   C639.2,163.1,637.7,163.6,636.1,163.6z"
       id="path25"
       style="fill:#000000;fill-opacity:1" /><path
       class="st0"
       d="M681.1,235.3c-13,0-19.2-10.4-18.8-31.2c0-1,0.1-2.9,0.2-5.5c0.1-2.4,0.2-4.2,0.2-5.5c0-1-0.1-2.5-0.3-4.4   c-0.2-1.9-0.3-3.3-0.3-4.1c-0.7-21.8,5.6-32.7,18.9-32.7c5.4,0,9.8,1.9,13.2,5.7c3.4,3.8,5.1,8.4,5.1,13.9c0,2-0.4,3.8-1.3,5.3   c-1,1.8-2.5,2.7-4.4,2.7l-0.5-0.1l0.8-1.9c0.7,0.5,1.5,1.2,2.5,2.1l1,0.9l-1.3-0.3c-2.3-0.6-3.7-1-4.2-1.4l-0.9-0.6   c-1.5-3.5-3.7-8.1-6.6-13.7l-0.4-0.2c-0.9-0.8-1.9-1.1-3-1.1c-4.6,0-7.2,4.4-7.8,13.3c-0.1,2.6-0.1,6,0.1,10l0.4,7.2   c0-0.3-0.1,2-0.4,7.2c-0.2,4.3-0.2,7.6-0.1,10c0.5,8.9,3.1,13.3,7.7,13.3c2.9,0,5-1.1,6.1-3.2c0.7-1.4,1.3-3.7,1.5-7   c0.1-2.1,0.3-3.5,0.6-4.4c0.8-2.4,2.3-3.6,4.5-3.6c3.7,0,5.6,2.8,5.6,8.5c0,5.6-1.6,10.4-4.9,14.5   C691.1,233.2,686.6,235.3,681.1,235.3z"
       id="path27"
       style="fill:#000000;fill-opacity:1" /><path
       class="st0"
       d="M747.2,233.9c-1.2,0-2.4-0.5-3.7-1.5c-1.2-1-1.8-2.1-1.8-3.3v-25.7c0-1.5-0.8-2.8-2.3-4.1   c-1.5-1.3-3-1.9-4.5-1.9c-1.4,0-2.8,0.6-4.4,1.9c-1.6,1.2-2.4,2.5-2.4,3.8v26.3c0,1.2-0.6,2.2-1.8,3.1c-1.2,0.9-2.5,1.3-3.7,1.3   c-1.2,0-2.5-0.5-3.7-1.5c-1.3-1-1.9-2.1-1.9-3.3v-71c0-1.2,0.6-2.3,1.9-3.3c1.2-1,2.5-1.5,3.7-1.5c3.7,0,5.4,4.1,5,12.4   c0,0.8,0,2.4,0,4.6c-0.2,11.2,2.2,16.7,7.3,16.7c4.5,0,7-3.4,7.2-10.2c0,0,0-1.8,0-5.5c0-6.8,0.1-10.7,0.2-11.7   c0.5-4.2,2.1-6.2,4.8-6.2c1.3,0,2.6,0.4,3.8,1.4c1.2,0.9,1.8,2,1.8,3.2v71.5c0,1.3-0.6,2.3-1.8,3.2   C749.7,233.5,748.4,233.9,747.2,233.9z"
       id="path29"
       style="fill:#000000;fill-opacity:1" /><path
       class="st0"
       d="M807.5,233.9c-1,0-2.2-0.5-3.6-1.6c-1.4-1.1-2.2-2.1-2.7-3.1c-1.4-3.3-3-7.9-5-13.9c-2.3-7-3.8-11.7-4.7-14.1   h-4l-1.9,2.1v26.1c0,1.2-0.6,2.2-1.7,3.2c-1.1,0.9-2.3,1.4-3.4,1.4c-1.1,0-2.2-0.5-3.4-1.5c-1.1-1-1.7-2.1-1.7-3.2v-71   c0-1.2,0.6-2.4,1.8-3.3c1.2-1,2.4-1.5,3.7-1.5c2,0,3.8,1.2,5.1,3.6c0.8,1.5,1.7,3.7,2.7,6.7c0.7,2.3,1.9,6.5,3.7,12.6   c0.6,1.9,2.1,6.2,4.5,12.7h4.1l1.9-2.1v-28.8c0-1.2,0.6-2.3,1.9-3.3c1.3-1,2.5-1.5,3.6-1.5c1.3,0,2.6,0.4,3.8,1.4   c1.2,0.9,1.8,2,1.8,3.2v71.4c0,0.9-0.8,1.9-2.5,3C809.9,233.4,808.5,233.9,807.5,233.9z"
       id="path31"
       style="fill:#000000;fill-opacity:1" /><path
       class="st0"
       d="M852.1,163.2c-2.3,0-4.1,1.9-5.4,5.7c-1.3,3.5-1.9,8.7-1.9,15.5c0,1.7,0,3.7,0,5.9v3.3c0.1,1.3,0,3.2-0.1,5.5   c-0.2,2.6-0.2,4.4-0.2,5.4c0,13,2.5,19.5,7.5,19.5c4.9,0,7.4-6.8,7.4-20.4c0-1.3,0-3.3,0-6v-4.1c-0.1-1.4-0.1-3.2,0-5.5   c0-2.7,0-4.5,0-5.5C859.4,169.7,856.9,163.2,852.1,163.2z M852.1,235.3c-12.9,0-19.2-10.4-18.8-31.2c0-1,0.1-2.9,0.2-5.5   c0.1-2.4,0.2-4.2,0.2-5.5c0-1-0.1-2.5-0.3-4.4c-0.2-1.9-0.3-3.3-0.3-4.1c-0.7-21.8,5.6-32.7,18.8-32.7c7.3,0,12.5,3.2,15.4,9.7   c2,4.5,3.1,11,3.1,19.4c0,1.3,0,3.3,0,6c0,2.7,0,4.7,0,6c0,0.2,0.1,1.9,0.2,5.1l0.2,5.2c0.1,4.2-0.1,7.9-0.5,11.3   C868.6,228.5,862.5,235.3,852.1,235.3z"
       id="path33"
       style="fill:#000000;fill-opacity:1" /><path
       class="st0"
       d="M913.8,234c-1.5,0-4.2-0.1-8.2-0.3c-2.7-0.1-6.5-0.3-11.4-0.7c-2.5-0.5-3.7-1.8-3.7-4.1v-71   c0-1.2,0.7-2.3,2-3.3c1.3-1,2.5-1.5,3.7-1.5c1.2,0,2.4,0.5,3.7,1.5c1.3,1,1.9,2,1.9,3.1v60c0,3.5,2.6,5.5,7.8,5.9   c1.1,0.1,2.8,0.2,5,0.4c2.2,0.2,3.7,0.6,4.3,1.3c1.3,1.5,1.9,2.5,1.9,3.1c0,0.3,0,0.6-0.1,0.8C920.3,232,918,233.6,913.8,234z"
       id="path35"
       style="fill:#000000;fill-opacity:1" /><path
       class="st0"
       d="M948.8,163.2c-2.3,0-4.1,1.9-5.4,5.7c-1.3,3.5-1.9,8.7-1.9,15.5c0,1.7,0,3.7,0,5.9v3.3c0.1,1.3,0,3.2-0.1,5.5   c-0.1,2.6-0.2,4.4-0.2,5.4c0,13,2.5,19.5,7.5,19.5c4.9,0,7.4-6.8,7.4-20.4c0-1.3,0-3.3,0-6v-4.1c-0.1-1.4-0.1-3.2,0-5.5   c0-2.7,0-4.5,0-5.5C956.1,169.7,953.7,163.2,948.8,163.2z M948.8,235.3c-12.9,0-19.2-10.4-18.7-31.2c0-1,0.1-2.9,0.2-5.5   c0.1-2.4,0.2-4.2,0.2-5.5c0-1-0.1-2.5-0.3-4.4c-0.2-1.9-0.3-3.3-0.3-4.1c-0.7-21.8,5.6-32.7,18.8-32.7c7.3,0,12.5,3.2,15.4,9.7   c2.1,4.5,3.1,11,3.1,19.4c0,1.3,0,3.3,0,6c0,2.7,0,4.7,0,6c0,0.2,0.1,1.9,0.2,5.1l0.2,5.2c0.1,4.2-0.1,7.9-0.5,11.3   C965.3,228.5,959.2,235.3,948.8,235.3z"
       id="path37"
       style="fill:#000000;fill-opacity:1" /><path
       class="st0"
       d="M1007.2,206.9c-2.2-2.4-4-4.8-5.4-7.3c-4.1,3.5-6.2,7.6-6.2,12.2c0,3.7,0.2,6.2,0.7,7.7c1,3,3,4.4,6,4.4   c2.2,0,3.9-1.1,5.1-3.4c1.1-1.9,1.6-4,1.6-6.3C1009,210.7,1008.4,208.2,1007.2,206.9z M1020.3,214.3c0,6.2-0.2,11.4-0.6,15.6   c-0.5,2.4-1.8,3.5-4,3.5c-0.5,0-1.3-0.1-2.2-0.5c-0.9-0.3-1.6-0.5-2.1-0.5c-1.2,0-3.1,0.5-5.6,1.4c-2.5,1-4.4,1.4-5.7,1.4   c-6.6,0-11.2-4.1-13.7-12.4c-1.6-5.3-2.4-12.1-2.1-20.5c0-0.8,0.1-2.3,0.2-4.5c0.1-1.9,0.2-3.4,0.2-4.5c0-1.7-0.1-3.3-0.2-4.8   c-0.1-1.7-0.2-3.3-0.3-4.8c-0.6-21.4,5.7-32.1,18.8-32.1c5.7,0,10.2,2.3,13.5,7c2.6,3.7,3.9,7.8,3.9,12.6c0,2-0.5,3.8-1.3,5.3   c-1,1.9-2.5,2.8-4.3,2.8c-2,0-3.5-1.1-4.3-3.2c-0.3-1-0.7-2.9-1-5.9c-0.3-2.5-0.9-4.3-1.7-5.4c-1.1-1.2-2.8-1.9-5.2-1.9   c-4.8,0-7.2,3.9-7.2,11.7c0,0.7,0.1,1.7,0.2,3.1c0.1,1.4,0.2,2.4,0.2,3.1v10.1c0.5,4.4,2.5,7,6,7.8c1.4-1.9,2.2-3,2.5-3.2   c1-1,2.2-1.6,3.5-1.6h3.3c6.6,0,9.9,3.6,9.9,10.9c0,1-0.1,2.6-0.2,4.6C1020.4,211.7,1020.3,213.2,1020.3,214.3z"
       id="path39"
       style="fill:#000000;fill-opacity:1" /><path
       class="st0"
       d="M1052.1,202.8v28.7c0,1.3-0.7,2.4-1.9,3.4c-1.3,0.9-2.6,1.4-4,1.4c-1.2,0-2.5-0.6-3.9-1.7   c-1.4-1.1-2-2.3-2-3.4v-26.4l-14-48.5c1-3.6,2.7-5.4,4.9-5.4c1,0,2.2,0.6,3.8,1.8c1.6,1.2,2.5,2.3,2.8,3.2   c1.5,5.3,3.6,11.8,6.2,19.5h4.4c1.5-2.3,2.6-4.7,3.2-7.4c0.3-1.7,0.9-4.3,1.7-7.7c1.5-6.3,4-9.5,7.5-9.5c1.7,0,3.2,1.8,4.5,5.3   L1052.1,202.8z"
       id="path41"
       style="fill:#000000;fill-opacity:1" /><path
       class="st0"
       d="M589,340.9c0,5.8-1.7,10.7-5.1,15c-3.6,4.4-8.2,6.6-13.8,6.6c-13,0-19.5-9.8-19.5-29.4c0-1.5,0.1-3.7,0.2-6.7   c0.1-3,0.2-5.2,0.2-6.7c0-1.3-0.1-3.3-0.3-6c-0.2-2.7-0.2-4.7-0.2-6c0-19.9,6.5-29.8,19.6-29.8c5.6,0,10.2,1.9,13.7,5.8   c3.5,3.9,5.3,8.6,5.3,14.3c0,2.2-0.5,4.1-1.4,5.7c-1.1,1.9-2.7,2.9-4.7,2.9c-0.7,0-1.7-0.4-3.2-1.3c-0.5-0.8-1.5-3.2-3.2-7   c-1.3-3-2.5-5.3-3.5-6.9c-1-0.8-2-1.3-3-1.3c-4.9,0-7.4,5.4-7.4,16.1c0,1.5,0.1,3.8,0.3,6.9c0.2,3,0.4,5.3,0.4,6.9   c0,1.5-0.1,3.8-0.4,6.8c-0.2,3-0.3,5.3-0.3,6.8c0,10.8,2.5,16.2,7.4,16.2c3.3,0,5.5-1.6,6.4-4.8c0.2-1.6,0.6-4.5,1.2-8.7   c0.5-3.2,2.2-4.8,5.2-4.8c1.9,0,3.5,1.1,4.6,3.2C588.5,336.7,589,338.7,589,340.9z"
       id="path43"
       style="fill:#000000;fill-opacity:1" /><path
       class="st0"
       d="M628.2,290.3c-2.3,0-4.1,1.9-5.4,5.7c-1.3,3.5-1.9,8.7-1.9,15.5c0,1.7,0,3.7,0,5.9v3.3c0.1,1.3,0,3.1-0.1,5.5   c-0.1,2.6-0.2,4.4-0.2,5.4c0,13,2.5,19.5,7.5,19.5c4.9,0,7.4-6.8,7.4-20.4c0-1.3,0-3.3,0-6v-4.1c-0.1-1.4-0.1-3.2,0-5.5   c0-2.7,0-4.5,0-5.5C635.5,296.8,633.1,290.3,628.2,290.3z M628.2,362.5c-12.9,0-19.2-10.4-18.7-31.2c0-1,0.1-2.9,0.2-5.5   c0.1-2.4,0.2-4.2,0.2-5.5c0-1-0.1-2.5-0.3-4.4c-0.2-1.9-0.3-3.3-0.3-4.1c-0.7-21.8,5.6-32.7,18.8-32.7c7.4,0,12.5,3.2,15.4,9.7   c2.1,4.5,3.1,11,3.1,19.4c0,1.3,0,3.3,0,6c0,2.7,0,4.7,0,6c0,0.2,0.1,1.9,0.2,5.1l0.2,5.2c0.1,4.2-0.1,7.9-0.5,11.3   C644.7,355.6,638.6,362.5,628.2,362.5z"
       id="path45"
       style="fill:#000000;fill-opacity:1" /><path
       class="st0"
       d="M686.5,362.5c-1.5,0-4.2-0.1-8.2-0.3c-2.7-0.1-6.5-0.3-11.4-0.7c-2.5-0.5-3.7-1.8-3.7-4.1v-71   c0-1.2,0.6-2.3,1.9-3.3c1.3-1,2.5-1.5,3.7-1.5c1.2,0,2.4,0.5,3.7,1.5c1.3,1,1.9,2,1.9,3.1v60c0,3.5,2.6,5.5,7.8,5.9   c1.1,0.1,2.8,0.2,5,0.4c2.2,0.2,3.7,0.6,4.3,1.3c1.3,1.5,1.9,2.5,1.9,3.1c0,0.4,0,0.6-0.1,0.8C692.9,360.5,690.7,362.1,686.5,362.5   z"
       id="path47"
       style="fill:#000000;fill-opacity:1" /><path
       class="st0"
       d="M726.5,362.5c-1.5,0-4.2-0.1-8.2-0.3c-2.7-0.1-6.5-0.3-11.4-0.7c-2.5-0.5-3.7-1.8-3.7-4.1v-71   c0-1.2,0.7-2.3,2-3.3c1.3-1,2.5-1.5,3.7-1.5c1.2,0,2.4,0.5,3.7,1.5c1.3,1,1.9,2,1.9,3.1v60c0,3.5,2.6,5.5,7.8,5.9   c1.1,0.1,2.8,0.2,5,0.4c2.3,0.2,3.7,0.6,4.3,1.3c1.3,1.5,1.9,2.5,1.9,3.1c0,0.4,0,0.6-0.1,0.8C732.9,360.5,730.6,362.1,726.5,362.5   z"
       id="path49"
       style="fill:#000000;fill-opacity:1" /><path
       class="st0"
       d="M774,292.1c-4.7,0-7.8,0.4-9.4,1.1c-2.6,1.2-3.9,3.5-3.9,6.8v3.9c0,3.8,0.6,6.5,1.8,8.2c1,1.4,2.4,2.5,4.5,3.3   c2.7,0.8,4.4,1.3,4.9,1.6c1.9,0.9,2.9,2.1,2.9,3.7c0,1.7-1.3,2.9-4,3.7c-3.8,1.3-6.4,2.9-7.9,5.1c-1.5,2.1-2.2,5.3-2.2,9.5   c0,4.6,0.6,8,1.7,10.2c1.6,2.9,4.6,4.2,8.8,3.8c3.5-0.3,5.5-0.4,6.1-0.4c2.1,0.3,3.2,1.5,3.2,3.7v0.9c0,2.3-1.2,3.7-3.7,4.4   c-1.8,0.5-5.8,0.7-11.8,0.7c-5,0-8-0.1-9-0.2c-4.4-0.5-6.6-2.1-6.6-4.6v-71c0-1.9,0.8-3.1,2.5-3.7c1-0.3,2.6-0.6,4.9-0.8   c1-0.1,3.8-0.2,8.2-0.2c10.3,0,15.5,1.7,15.5,5.2c0,1.5-0.7,2.7-2.1,3.6C777,291.7,775.5,292.1,774,292.1z"
       id="path51"
       style="fill:#000000;fill-opacity:1" /><path
       class="st0"
       d="M819,362.5c-13,0-19.2-10.4-18.8-31.2c0-1,0.1-2.9,0.2-5.5c0.1-2.4,0.2-4.2,0.2-5.5c0-1-0.1-2.5-0.3-4.4   c-0.2-1.9-0.3-3.3-0.3-4.1c-0.7-21.8,5.6-32.7,18.9-32.7c5.4,0,9.8,1.9,13.2,5.7c3.4,3.8,5.1,8.4,5.1,13.9c0,2-0.4,3.8-1.3,5.3   c-1,1.8-2.5,2.7-4.4,2.7l-0.5-0.1l0.8-1.9c0.7,0.5,1.5,1.2,2.5,2.1l1,0.9l-1.3-0.3c-2.3-0.6-3.7-1-4.2-1.4l-0.9-0.6   c-1.5-3.5-3.7-8.1-6.6-13.7l-0.4-0.2c-0.9-0.8-1.9-1.1-3-1.1c-4.6,0-7.2,4.4-7.8,13.3c-0.1,2.6-0.1,6,0.1,10l0.5,7.2   c0-0.4-0.1,2-0.4,7.2c-0.2,4.3-0.2,7.6-0.1,10c0.5,8.9,3.1,13.3,7.7,13.3c2.9,0,5-1.1,6.1-3.2c0.7-1.4,1.2-3.7,1.5-7   c0.1-2.1,0.3-3.5,0.6-4.4c0.8-2.4,2.3-3.6,4.5-3.6c3.7,0,5.6,2.8,5.6,8.5c0,5.6-1.6,10.5-4.9,14.5   C828.9,360.3,824.4,362.5,819,362.5z"
       id="path53"
       style="fill:#000000;fill-opacity:1" /><path
       class="st0"
       d="M887,291.2l-0.6,0.2c-0.4,0.1-1.3,0.4-2.6,0.7c-4.8,1.5-7.3,3.6-7.3,6v60c0,1-0.7,2.1-2,3.1   c-1.3,1-2.5,1.5-3.6,1.5c-1.2,0-2.5-0.5-3.7-1.5c-1.2-1-1.8-2.1-1.8-3.3v-59.6c0-2.2-1.9-4.1-5.8-5.7c-1.2-0.5-3.3-1.5-6.1-3   c-0.4-0.6-0.9-1.1-1.4-1.7c0.4-3.4,3-5.3,7.7-5.8c0.2-0.1,4-0.1,11.3-0.1c5.8,0,9.4,0.1,10.8,0.2c2.9,0.3,4.6,0.6,5.3,0.8   c1.8,0.8,2.8,2.1,2.8,4.1C889.9,288.5,888.9,289.9,887,291.2z"
       id="path55"
       style="fill:#000000;fill-opacity:1" /><path
       class="st0"
       d="M908,362.5c-1.2,0-2.5-0.5-3.7-1.5c-1.2-1-1.8-2.1-1.8-3.3v-71c0-1.2,0.6-2.3,1.9-3.3c1.3-1,2.5-1.5,3.7-1.5   c1.2,0,2.5,0.5,3.8,1.4c1.3,0.9,1.9,2,1.9,3.2V358c0,1.2-0.6,2.3-1.9,3.2C910.6,362,909.3,362.5,908,362.5z"
       id="path57"
       style="fill:#000000;fill-opacity:1" /><path
       class="st0"
       d="M968.5,312.8l-7.4,42.1c-0.3,1.9-1.2,3.6-2.6,5.1c-1.5,1.7-3.2,2.5-5,2.5c-1.2,0-2.6-0.5-4.1-1.5   c-1.5-1-2.4-2-2.7-3.2c-2.1-9.2-4.7-23.5-8.1-42.8c-3-17.3-4.5-26.5-4.5-27.4c0-1.2,0.5-2.4,1.4-3.7c0.9-1.3,2-1.9,3.2-1.9   c0.9,0,2.1,0.7,3.6,2.1c1.5,1.4,2.4,2.6,2.5,3.5c1.5,11.7,3.5,23.4,6,34.9h5.1c0.8-3.5,1.8-9.5,2.8-18c0.9-7.8,1.9-13.7,3.1-17.9   c0.3-1,1.1-2,2.4-3.1c1.3-1.1,2.5-1.6,3.4-1.6c1,0,2,0.7,3.2,2.1c1.2,1.4,1.8,2.6,1.8,3.5C972.8,288,971.4,296.4,968.5,312.8z"
       id="path59"
       style="fill:#000000;fill-opacity:1" /><path
       class="st0"
       d="M1019.9,292.1c-4.7,0-7.8,0.4-9.4,1.1c-2.6,1.2-3.9,3.5-3.9,6.8v3.9c0,3.8,0.6,6.5,1.8,8.2   c1,1.4,2.5,2.5,4.5,3.3c2.7,0.8,4.3,1.3,4.9,1.6c1.9,0.9,2.9,2.1,2.9,3.7c0,1.7-1.3,2.9-4,3.7c-3.8,1.3-6.4,2.9-7.9,5.1   c-1.5,2.1-2.2,5.3-2.2,9.5c0,4.6,0.6,8,1.7,10.2c1.6,2.9,4.6,4.2,8.8,3.8c3.5-0.3,5.5-0.4,6.1-0.4c2.1,0.3,3.2,1.5,3.2,3.7v0.9   c0,2.3-1.2,3.7-3.7,4.4c-1.9,0.5-5.8,0.7-11.8,0.7c-5,0-8-0.1-9-0.2c-4.4-0.5-6.6-2.1-6.6-4.6v-71c0-1.9,0.8-3.1,2.5-3.7   c1-0.3,2.6-0.6,4.9-0.8c1-0.1,3.8-0.2,8.2-0.2c10.3,0,15.5,1.7,15.5,5.2c0,1.5-0.7,2.7-2.1,3.6   C1022.9,291.7,1021.5,292.1,1019.9,292.1z"
       id="path61"
       style="fill:#000000;fill-opacity:1" /></g><g
     id="g63"
     style="stroke:#000000;stroke-opacity:1"><ellipse
       transform="matrix(0.9991 -4.286891e-02 4.286891e-02 0.9991 -8.2046 4.0615)"
       class="st1"
       cx="90.6"
       cy="193.3"
       rx="90.3"
       ry="194.2"
       id="ellipse65"
       style="stroke:#000000;stroke-opacity:1" /><path
       class="st1"
       d="M250.1,92.8C323.5,171,353.4,262.1,317,296.3c-36.4,34.1-125.4-1.6-198.7-79.9C44.9,138.1,15,47,51.4,12.9   C87.8-21.2,176.7,14.6,250.1,92.8z"
       id="path67"
       style="stroke:#000000;stroke-opacity:1" /><path
       class="st1"
       d="M4.7,121c0,0,22.5-37.1,199.6-70.2"
       id="path69"
       style="stroke:#000000;stroke-opacity:1" /><path
       class="st1"
       d="M1.1,151.3c0,0,82.6-37.1,261-44.8"
       id="path71"
       style="stroke:#000000;stroke-opacity:1" /><path
       class="st1"
       d="M151.7,17.3C78,20.5,17.2,70.9,17.2,70.9"
       id="path73"
       style="stroke:#000000;stroke-opacity:1" /><path
       class="st1"
       d="M21.5,307.9c5-0.2,142.8,9.5,142.8,9.5"
       id="path75"
       style="stroke:#000000;stroke-opacity:1" /><line
       class="st1"
       x1="43.9"
       y1="352"
       x2="140.6"
       y2="362.5"
       id="line77"
       style="stroke:#000000;stroke-opacity:1" /><path
       class="st1"
       d="M351.9,218.5c3.3,76.4,34.7,137,70.2,135.5c35.5-1.5,61.7-64.7,58.4-141c-3.3-76.4-34.7-137-70.2-135.5   C374.7,79,348.6,142.1,351.9,218.5z"
       id="path79"
       style="stroke:#000000;stroke-opacity:1" /><ellipse
       transform="matrix(0.619 -0.7854 0.7854 0.619 -19.5942 345.5836)"
       class="st1"
       cx="346.4"
       cy="193"
       rx="138.4"
       ry="64.4"
       id="ellipse81"
       style="stroke:#000000;stroke-opacity:1" /><path
       class="st1"
       d="M0,187.3c301.8-54.7,471.2-28.6,471.2-28.6"
       id="path83"
       style="stroke:#000000;stroke-opacity:1" /><path
       class="st1"
       d="M2.5,227.9c275.1-29.8,478-9.5,478-9.5"
       id="path85"
       style="stroke:#000000;stroke-opacity:1" /><path
       class="st1"
       d="M8.4,260.5c0,0,170.9,16.8,470.1,0"
       id="path87"
       style="stroke:#000000;stroke-opacity:1" /><path
       class="st1"
       d="M347,102.8c71.4,2.7,114.3,21.2,114.3,21.2"
       id="path89"
       style="stroke:#000000;stroke-opacity:1" /><line
       class="st1"
       x1="376.7"
       y1="322.6"
       x2="465.1"
       y2="313.3"
       id="line91"
       style="stroke:#000000;stroke-opacity:1" /></g></svg>